<mxfile host="65bd71144e">
    <diagram id="L-autRN_uENwIV8cupbO" name="Page-1">
        <mxGraphModel dx="1132" dy="12" grid="0" gridSize="10" guides="1" tooltips="1" connect="1" arrows="1" fold="1" page="1" pageScale="1" pageWidth="1100" pageHeight="850" math="0" shadow="0">
            <root>
                <mxCell id="0"/>
                <mxCell id="1" parent="0"/>
                <mxCell id="202" value="" style="html=1;" parent="1" vertex="1">
                    <mxGeometry x="938" y="1102.5" width="637" height="675" as="geometry"/>
                </mxCell>
                <mxCell id="204" value="&lt;b&gt;CFO&lt;/b&gt;" style="shape=umlActor;verticalLabelPosition=bottom;verticalAlign=top;html=1;" parent="1" vertex="1">
                    <mxGeometry x="810" y="1320" width="30" height="60" as="geometry"/>
                </mxCell>
                <mxCell id="207" value="&lt;b&gt;add, update, remove and search individual employee&lt;/b&gt;" style="ellipse;whiteSpace=wrap;html=1;" parent="1" vertex="1">
                    <mxGeometry x="1064" y="1205" width="140" height="70" as="geometry"/>
                </mxCell>
                <mxCell id="208" value="&lt;b&gt;add, update, remove and search department&amp;nbsp;&lt;/b&gt;" style="ellipse;whiteSpace=wrap;html=1;" parent="1" vertex="1">
                    <mxGeometry x="1064" y="1310" width="140" height="70" as="geometry"/>
                </mxCell>
                <mxCell id="210" value="&lt;b style=&quot;&quot;&gt;&lt;font style=&quot;font-size: 11px;&quot;&gt;allocate budget for department, update budget category, store budget, modify budget&lt;/font&gt;&lt;/b&gt;" style="ellipse;whiteSpace=wrap;html=1;" parent="1" vertex="1">
                    <mxGeometry x="1054" y="1400" width="150" height="80" as="geometry"/>
                </mxCell>
                <mxCell id="231" style="edgeStyle=none;html=1;entryX=0.039;entryY=0.669;entryDx=0;entryDy=0;entryPerimeter=0;fontSize=12;endArrow=open;endFill=0;dashed=1;dashPattern=8 8;" parent="1" source="215" target="220" edge="1">
                    <mxGeometry relative="1" as="geometry"/>
                </mxCell>
                <mxCell id="232" style="edgeStyle=none;html=1;entryX=0;entryY=0.5;entryDx=0;entryDy=0;fontSize=12;endArrow=open;endFill=0;dashed=1;dashPattern=8 8;" parent="1" source="215" target="221" edge="1">
                    <mxGeometry relative="1" as="geometry"/>
                </mxCell>
                <mxCell id="233" style="edgeStyle=none;html=1;entryX=0;entryY=0.5;entryDx=0;entryDy=0;fontSize=12;endArrow=open;endFill=0;dashed=1;dashPattern=8 8;" parent="1" source="215" target="222" edge="1">
                    <mxGeometry relative="1" as="geometry"/>
                </mxCell>
                <mxCell id="215" value="&lt;meta charset=&quot;utf-8&quot;&gt;&lt;b style=&quot;border-color: var(--border-color); color: rgb(0, 0, 0); font-family: Helvetica; font-size: 12px; font-style: normal; font-variant-ligatures: normal; font-variant-caps: normal; letter-spacing: normal; orphans: 2; text-align: center; text-indent: 0px; text-transform: none; widows: 2; word-spacing: 0px; -webkit-text-stroke-width: 0px; text-decoration-thickness: initial; text-decoration-style: initial; text-decoration-color: initial; background-color: rgb(251, 251, 251);&quot;&gt;&lt;font style=&quot;border-color: var(--border-color); font-size: 12px;&quot;&gt;Manage Employee Expense&lt;/font&gt;&lt;/b&gt;" style="ellipse;whiteSpace=wrap;html=1;" parent="1" vertex="1">
                    <mxGeometry x="1054" y="1510" width="150" height="80" as="geometry"/>
                </mxCell>
                <mxCell id="220" value="&lt;b style=&quot;&quot;&gt;&lt;font style=&quot;font-size: 12px;&quot;&gt;add individual employee expenses, find highest spending employee, create histogram of individual employeees&lt;/font&gt;&lt;/b&gt;" style="ellipse;whiteSpace=wrap;html=1;" parent="1" vertex="1">
                    <mxGeometry x="1314" y="1390" width="190" height="90" as="geometry"/>
                </mxCell>
                <mxCell id="221" value="&lt;b style=&quot;font-size: 11px;&quot;&gt;&lt;font style=&quot;font-size: 11px;&quot;&gt;add department expense, get monthly report, monthly expense by category, monthly report by each&lt;/font&gt;&lt;font style=&quot;font-size: 11px;&quot;&gt; &lt;/font&gt;&lt;font style=&quot;font-size: 11px;&quot;&gt;expense&lt;/font&gt;&lt;/b&gt;" style="ellipse;whiteSpace=wrap;html=1;" parent="1" vertex="1">
                    <mxGeometry x="1314" y="1500" width="180" height="100" as="geometry"/>
                </mxCell>
                <mxCell id="222" value="&lt;b&gt;histogram of each expense, alert budget limit, find highest spending department, find highest budget department&lt;/b&gt;" style="ellipse;whiteSpace=wrap;html=1;" parent="1" vertex="1">
                    <mxGeometry x="1309" y="1610" width="185" height="100" as="geometry"/>
                </mxCell>
                <mxCell id="224" value="Expense Tracker System" style="text;strokeColor=none;fillColor=none;html=1;fontSize=24;fontStyle=1;verticalAlign=middle;align=center;" parent="1" vertex="1">
                    <mxGeometry x="1219" y="1110" width="100" height="40" as="geometry"/>
                </mxCell>
                <mxCell id="225" value="" style="endArrow=none;html=1;exitX=1;exitY=0.3333333333333333;exitDx=0;exitDy=0;exitPerimeter=0;entryX=0;entryY=0.5;entryDx=0;entryDy=0;" parent="1" source="204" target="207" edge="1">
                    <mxGeometry width="50" height="50" relative="1" as="geometry">
                        <mxPoint x="860" y="1290" as="sourcePoint"/>
                        <mxPoint x="992.4137931034484" y="1452.9310344827586" as="targetPoint"/>
                    </mxGeometry>
                </mxCell>
                <mxCell id="226" value="" style="endArrow=none;html=1;entryX=0;entryY=0.5;entryDx=0;entryDy=0;exitX=1;exitY=0.3333333333333333;exitDx=0;exitDy=0;exitPerimeter=0;" parent="1" source="204" target="208" edge="1">
                    <mxGeometry width="50" height="50" relative="1" as="geometry">
                        <mxPoint x="840" y="1400" as="sourcePoint"/>
                        <mxPoint x="1061.000000000006" y="1305" as="targetPoint"/>
                    </mxGeometry>
                </mxCell>
                <mxCell id="227" value="" style="endArrow=none;html=1;exitX=1;exitY=0.3333333333333333;exitDx=0;exitDy=0;exitPerimeter=0;entryX=0;entryY=0.5;entryDx=0;entryDy=0;" parent="1" source="204" target="210" edge="1">
                    <mxGeometry width="50" height="50" relative="1" as="geometry">
                        <mxPoint x="860" y="1415" as="sourcePoint"/>
                        <mxPoint x="1071.000000000006" y="1315" as="targetPoint"/>
                    </mxGeometry>
                </mxCell>
                <mxCell id="228" value="" style="endArrow=none;html=1;exitX=1;exitY=0.3333333333333333;exitDx=0;exitDy=0;exitPerimeter=0;entryX=0;entryY=0.5;entryDx=0;entryDy=0;" parent="1" source="204" target="215" edge="1">
                    <mxGeometry width="50" height="50" relative="1" as="geometry">
                        <mxPoint x="870" y="1425" as="sourcePoint"/>
                        <mxPoint x="1081.000000000006" y="1325" as="targetPoint"/>
                    </mxGeometry>
                </mxCell>
                <mxCell id="234" value="Include" style="text;html=1;strokeColor=none;fillColor=none;align=center;verticalAlign=middle;whiteSpace=wrap;rounded=0;rotation=-15;" vertex="1" parent="1">
                    <mxGeometry x="1181" y="1472" width="60" height="30" as="geometry"/>
                </mxCell>
                <mxCell id="235" value="Include" style="text;html=1;strokeColor=none;fillColor=none;align=center;verticalAlign=middle;whiteSpace=wrap;rounded=0;rotation=0;" vertex="1" parent="1">
                    <mxGeometry x="1223" y="1522" width="60" height="30" as="geometry"/>
                </mxCell>
                <mxCell id="240" value="include" style="text;html=1;strokeColor=none;fillColor=none;align=center;verticalAlign=middle;whiteSpace=wrap;rounded=0;" vertex="1" parent="1">
                    <mxGeometry x="1227" y="1593" width="63" height="28" as="geometry"/>
                </mxCell>
                <mxCell id="241" style="edgeStyle=none;html=1;dashed=1;dashPattern=8 8;endArrow=open;endFill=0;" edge="1" parent="1" source="224" target="224">
                    <mxGeometry relative="1" as="geometry"/>
                </mxCell>
            </root>
        </mxGraphModel>
    </diagram>
</mxfile>